<svg width="81" height="80" viewBox="0 0 81 80" fill="none" xmlns="http://www.w3.org/2000/svg">
<path opacity="0.6" d="M38.1396 7.7207C58.0987 7.72089 74.2783 23.9013 74.2783 43.8604C74.2783 63.8194 58.0987 79.9998 38.1396 80C18.1805 80 2 63.8195 2 43.8604C2.00003 23.9012 18.1805 7.7207 38.1396 7.7207ZM38.0293 19.6182C24.5812 19.6182 13.6797 30.5206 13.6797 43.9688C13.6798 57.4167 24.5813 68.3184 38.0293 68.3184C51.4773 68.3183 62.3788 57.4167 62.3789 43.9688C62.3789 30.5207 51.4774 19.6182 38.0293 19.6182Z" fill="#E6F1F7"/>
<path opacity="0.6" d="M44.3595 0C64.3185 0.000189668 80.4982 16.1806 80.4982 36.1396C80.498 56.0986 64.3184 72.2781 44.3595 72.2783C24.4004 72.2783 8.22004 56.0987 8.21985 36.1396C8.21985 16.1805 24.4003 0 44.3595 0ZM44.2491 11.8975C30.8013 11.8976 19.8997 22.7992 19.8995 36.2471C19.8995 49.6951 30.8012 60.5975 44.2491 60.5977C57.6973 60.5977 68.5997 49.6952 68.5997 36.2471C68.5996 22.7991 57.6972 11.8975 44.2491 11.8975Z" fill="#CCE3F0"/>
<path d="M8.97705 35.7607C8.97705 21.7913 21.472 10.4668 36.8852 10.4668C52.2985 10.4668 64.7934 21.7913 64.7934 35.7607C64.7934 39.3968 63.9469 42.8537 62.4227 45.9783L64.7987 61.0523L50.5454 57.8227C46.5076 59.8808 41.8477 61.0547 36.8852 61.0547M2.00331 51.5694C2.00331 53.842 2.53234 56.0025 3.48486 57.9554L2 67.3767L10.9075 65.3582C13.4309 66.6445 16.343 67.3781 19.4443 67.3781C29.0767 67.3781 36.8852 60.3003 36.8852 51.5694C36.8852 42.8385 29.0767 35.7607 19.4443 35.7607C9.81189 35.7607 2.00331 42.8385 2.00331 51.5694Z" stroke="#0F75BD" stroke-width="3" stroke-linecap="round" stroke-linejoin="round"/>
</svg>
